<svg width="21" height="16" viewBox="0 0 21 16" fill="none" xmlns="http://www.w3.org/2000/svg" class="w-full h-full mt-px mr-px"><path fill-rule="evenodd" clip-rule="evenodd" d="M16.8 2H4.2C3.0402 2 2.1 2.89543 2.1 4V12C2.1 13.1046 3.0402 14 4.2 14H16.8C17.9598 14 18.9 13.1046 18.9 12V4C18.9 2.89543 17.9598 2 16.8 2ZM4.2 0C1.8804 0 0 1.79086 0 4V12C0 14.2091 1.8804 16 4.2 16H16.8C19.1196 16 21 14.2091 21 12V4C21 1.79086 19.1196 0 16.8 0H4.2Z" fill="black"></path><path fill-rule="evenodd" clip-rule="evenodd" d="M9.01508 10L1.35754 2.70712L2.84246 1.29291L10.5 8.5858L18.1575 1.29291L19.6425 2.70712L11.9849 10C11.1648 10.7811 9.83518 10.7811 9.01508 10Z" fill="black"></path></svg>