<svg width="21" height="21" viewBox="0 0 21 21" fill="none" xmlns="http://www.w3.org/2000/svg"><path fill-rule="evenodd" clip-rule="evenodd" d="M10.2 6L9.37143 6C8.61006 6 7.98329 6.32561 7.56682 6.83806C7.17027 7.32601 7 7.93481 7 8.5C7 9.06519 7.17027 9.67399 7.56682 10.1619C7.98329 10.6744 8.61006 11 9.37143 11L12.6667 11C12.7175 11 12.7604 11.0044 12.8315 11.1124C12.9219 11.2498 13 11.4961 13 11.8C13 12.1039 12.9219 12.3502 12.8315 12.4876C12.7604 12.5956 12.7175 12.6 12.6667 12.6H8V14.6H9.889V16H11.889V14.6H12.6667C13.5048 14.6 14.1286 14.1544 14.5019 13.5874C14.8559 13.0498 15 12.3961 15 11.8C15 11.2039 14.8559 10.5502 14.5019 10.0126C14.1286 9.44557 13.5048 9 12.6667 9L9.37143 9C9.21851 9 9.15957 8.95061 9.1189 8.90056C9.0583 8.82601 9 8.68481 9 8.5C9 8.31519 9.0583 8.17399 9.1189 8.09944C9.15957 8.04939 9.21851 8 9.37143 8H14V6L12.2 6V5H10.2V6Z" fill="black"></path><path fill-rule="evenodd" clip-rule="evenodd" d="M2.54765 7H5V9H1.5C0.671574 9 0 8.32843 0 7.5V2H2V4.0798C3.9409 1.5966 6.98024 0 10.3934 0C16.2407 0 21 4.69052 21 10.5C21 16.3095 16.2407 21 10.3934 21C5.30851 21 1.05061 17.4558 0.0226794 12.7118L1.97732 12.2882C2.80691 16.1169 6.2546 19 10.3934 19C15.1572 19 19 15.1839 19 10.5C19 5.81607 15.1572 2 10.3934 2C6.90006 2 3.89721 4.05437 2.54765 7Z" fill="black"></path></svg>